<?xml version="1.0" encoding="utf-8"?>
<!-- Generator: Adobe Illustrator 16.0.0, SVG Export Plug-In . SVG Version: 6.00 Build 0)  -->
<!DOCTYPE svg PUBLIC "-//W3C//DTD SVG 1.1//EN" "http://www.w3.org/Graphics/SVG/1.1/DTD/svg11.dtd" [
	<!ENTITY ns_extend "http://ns.adobe.com/Extensibility/1.0/">
	<!ENTITY ns_ai "http://ns.adobe.com/AdobeIllustrator/10.0/">
	<!ENTITY ns_graphs "http://ns.adobe.com/Graphs/1.0/">
	<!ENTITY ns_vars "http://ns.adobe.com/Variables/1.0/">
	<!ENTITY ns_imrep "http://ns.adobe.com/ImageReplacement/1.0/">
	<!ENTITY ns_sfw "http://ns.adobe.com/SaveForWeb/1.0/">
	<!ENTITY ns_custom "http://ns.adobe.com/GenericCustomNamespace/1.0/">
	<!ENTITY ns_adobe_xpath "http://ns.adobe.com/XPath/1.0/">
]>
<svg version="1.1" id="Capa_1" xmlns:x="&ns_extend;" xmlns:i="&ns_ai;" xmlns:graph="&ns_graphs;"
	 xmlns="http://www.w3.org/2000/svg" xmlns:xlink="http://www.w3.org/1999/xlink" x="0px" y="0px" width="20px" height="20px"
	 viewBox="422 422 20 20" enable-background="new 422 422 20 20" xml:space="preserve">
<metadata>
	<sfw  xmlns="&ns_sfw;">
		<slices></slices>
		<sliceSourceBounds  width="19.477" height="11.14" bottomLeftOrigin="true" x="389.761" y="294.93"></sliceSourceBounds>
	</sfw>
</metadata>
<path fill="#FFFFFF" d="M440.634,430.409c-0.238-0.263-2.797-2.343-3.254-2.478c-0.199-0.058-0.399-0.094-0.606-0.109
	c-0.956-0.07-2.011,0.23-2.676,0.946c-0.059,0.062-0.092,0.099-0.092,0.099s0.025-0.042,0.068-0.116
	c0.206-0.346,0.505-0.646,0.824-0.887c0.147-0.11,0.304-0.209,0.467-0.296c0.044-0.023,0.46-0.248,0.488-0.219l-0.227-0.24
	c-0.365-0.364-0.761-0.679-1.298-0.679c-0.667,0-1.236,0.413-1.468,0.997c-0.197-0.146-0.509-0.24-0.862-0.24
	c-0.352,0-0.665,0.095-0.861,0.24c-0.231-0.583-0.801-0.997-1.467-0.997c-0.538,0-0.933,0.314-1.298,0.679l-0.227,0.24
	c0.028-0.029,0.444,0.195,0.489,0.219c0.163,0.086,0.318,0.186,0.467,0.296c0.319,0.241,0.618,0.541,0.823,0.887
	c0.043,0.074,0.068,0.116,0.068,0.116s-0.033-0.036-0.09-0.098c-0.665-0.716-1.72-1.016-2.676-0.946
	c-0.208,0.016-0.407,0.052-0.606,0.109c-0.457,0.135-3.016,2.214-3.253,2.478c-0.687,0.76-1.105,1.767-1.105,2.873
	c0,2.369,1.92,4.289,4.289,4.289c2.167,0,3.958-1.607,4.247-3.693c0.337,0.246,0.753,0.391,1.203,0.391
	c0.45,0,0.866-0.145,1.204-0.391c0.289,2.086,2.08,3.693,4.246,3.693c2.369,0,4.289-1.92,4.289-4.289
	C441.738,432.175,441.32,431.168,440.634,430.409z M426.454,435.975c-1.428,0-2.586-1.156-2.586-2.586
	c0-1.428,1.158-2.586,2.586-2.586c1.429,0,2.586,1.158,2.586,2.586C429.041,434.818,427.883,435.975,426.454,435.975z M432,433.145
	c-0.376,0-0.682-0.305-0.682-0.681c0-0.376,0.306-0.682,0.682-0.682c0.377,0,0.682,0.306,0.682,0.682
	C432.682,432.84,432.376,433.145,432,433.145z M437.544,435.975c-1.427,0-2.586-1.156-2.586-2.586c0-1.428,1.159-2.586,2.586-2.586
	c1.43,0,2.587,1.158,2.587,2.586C440.131,434.818,438.974,435.975,437.544,435.975z"/>
</svg>
